<svg xmlns="http://www.w3.org/2000/svg" viewBox="0 0 400 400">
  <defs>
    <radialGradient id="bgGlow" cx="50%" cy="40%" r="60%">
      <stop offset="0%" stop-color="#ffe08a"/>
      <stop offset="100%" stop-color="#ffc233" stop-opacity="0"/>
    </radialGradient>
  </defs>
  <circle cx="200" cy="180" r="180" fill="url(#bgGlow)"/>
  <!-- bucket -->
  <path d="M110 190 L130 340 Q200 360 270 340 L290 190 Z" fill="#e8383a"/>
  <path d="M110 190 L130 340 Q200 360 270 340 L290 190" fill="none" stroke="#b81f21" stroke-width="4"/>
  <rect x="100" y="170" width="200" height="34" rx="8" fill="#d62828"/>
  <text x="200" y="196" text-anchor="middle" font-family="Verdana, sans-serif" font-weight="bold" font-size="18" fill="#ffe08a">RFC</text>
  <path d="M120 230 h160 M116 260 h168 M122 290 h156" stroke="#b81f21" stroke-width="3" opacity="0.5"/>
  <!-- chicken pieces poking out -->
  <ellipse cx="150" cy="160" rx="34" ry="24" fill="#e8a13d" transform="rotate(-15 150 160)"/>
  <ellipse cx="150" cy="160" rx="34" ry="24" fill="#f2c069" opacity="0.6" transform="rotate(-15 150 160)"/>
  <ellipse cx="205" cy="140" rx="38" ry="27" fill="#d9902f" transform="rotate(5 205 140)"/>
  <ellipse cx="205" cy="140" rx="38" ry="27" fill="#f2c069" opacity="0.5" transform="rotate(5 205 140)"/>
  <ellipse cx="255" cy="165" rx="32" ry="22" fill="#e8a13d" transform="rotate(20 255 165)"/>
  <path d="M240 178 q6 20 -4 34" stroke="#c98a2b" stroke-width="8" fill="none" stroke-linecap="round"/>
  <!-- steam -->
  <path d="M170 100 q-10 -20 0 -34 q10 -14 0 -30" stroke="#fff" stroke-width="5" fill="none" stroke-linecap="round" opacity="0.7"/>
  <path d="M205 90 q-10 -20 0 -34 q10 -14 0 -30" stroke="#fff" stroke-width="5" fill="none" stroke-linecap="round" opacity="0.7"/>
  <path d="M240 100 q-10 -20 0 -34 q10 -14 0 -30" stroke="#fff" stroke-width="5" fill="none" stroke-linecap="round" opacity="0.7"/>
</svg>
